<svg xmlns="http://www.w3.org/2000/svg" width="410" height="404" viewBox="0 0 410 404" fill="none">
  <path d="M399.641 59.5248L211.566 392.967C208.083 399.144 199.211 399.169 195.694 393.011L10.3574 59.5248C6.53029 52.6322 12.5352 44.4327 20.3088 46.005L205.104 83.4401C206.414 83.7056 207.763 83.7056 209.073 83.4401L389.69 46.005C397.463 44.4327 403.468 52.6322 399.641 59.5248Z" fill="url(#paint0_linear)"/>
  <path d="M293.682 1.57313L154.467 28.7742C152.175 29.2221 150.477 31.1967 150.396 33.5292L141.831 278.22C141.762 280.212 143.588 281.698 145.543 281.35L184.291 274.435C186.383 274.062 188.289 275.744 188.172 277.866L176.364 490.77C176.242 492.976 179.154 494.026 180.516 492.305L188.159 482.646C188.956 481.639 189.426 480.408 189.502 479.127L210.761 116.578C210.883 114.455 213.07 112.909 215.142 113.386L253.395 122.19C255.393 122.65 257.263 120.982 257.022 118.947L244.629 14.5302C244.35 12.1773 246.053 10.0578 248.41 9.59693L292.603 0.961867C296.024 0.293081 297.104 0.904344 293.682 1.57313Z" fill="url(#paint1_linear)"/>
  <defs>
    <linearGradient id="paint0_linear" x1="6" y1="32.9999" x2="235" y2="344" gradientUnits="userSpaceOnUse">
      <stop stop-color="#41D1FF"/>
      <stop offset="1" stop-color="#BD34FE"/>
    </linearGradient>
    <linearGradient id="paint1_linear" x1="194.651" y1="8.81818" x2="236.076" y2="292.989" gradientUnits="userSpaceOnUse">
      <stop stop-color="#FFEA83"/>
      <stop offset="0.0833333" stop-color="#FFDD35"/>
      <stop offset="1" stop-color="#FFA800"/>
    </linearGradient>
  </defs>
</svg>

